<?xml version="1.0" standalone="no"?>
<!DOCTYPE svg PUBLIC "-//W3C//DTD SVG 20010904//EN"
 "http://www.w3.org/TR/2001/REC-SVG-20010904/DTD/svg10.dtd">
<svg version="1.0" xmlns="http://www.w3.org/2000/svg"
 width="512.000000pt" height="512.000000pt" viewBox="0 0 512.000000 512.000000"
 preserveAspectRatio="xMidYMid meet">
<metadata>
Created by potrace 1.14, written by Peter Selinger 2001-2017
</metadata>
<g transform="translate(0.000000,512.000000) scale(0.100000,-0.100000)"
fill="#000000" stroke="none">
<path d="M2668 5111 c-40 -13 -114 -68 -143 -105 -83 -109 -160 -292 -190
-453 -22 -118 -23 -126 -31 -210 -13 -136 -6 -575 10 -602 2 -3 7 -33 11 -66
3 -32 8 -62 10 -65 2 -4 7 -29 10 -56 4 -27 8 -52 9 -55 0 -3 -30 -41 -69 -84
-142 -159 -160 -179 -175 -195 -125 -131 -268 -321 -336 -446 -143 -262 -188
-581 -118 -833 34 -125 126 -302 201 -387 134 -154 249 -243 397 -308 67 -30
177 -66 221 -72 17 -3 41 -7 53 -10 59 -12 116 -17 237 -18 l130 -1 12 -60
c14 -66 14 -65 44 -215 27 -136 33 -336 13 -415 -38 -146 -107 -240 -200 -275
-55 -20 -135 -25 -184 -11 -24 7 -24 8 21 37 146 93 206 259 149 413 -33 91
-87 151 -180 198 -49 25 -65 28 -150 28 -85 0 -101 -3 -153 -29 -128 -65 -215
-220 -203 -361 17 -205 141 -349 366 -426 51 -17 90 -22 180 -23 128 -1 149 2
233 34 140 53 223 153 282 340 22 71 26 105 27 200 0 63 -3 135 -6 160 -7 45
-32 187 -40 225 -3 11 -16 70 -29 132 l-25 112 59 36 c173 107 339 348 374
543 30 169 -1 355 -86 528 -54 108 -112 179 -200 245 -132 98 -244 137 -405
138 -55 1 -62 3 -67 24 -3 12 -17 74 -32 137 -15 63 -29 129 -31 145 -3 17 -7
37 -10 45 -3 8 -7 33 -10 55 -4 37 3 51 105 200 60 88 136 199 170 247 34 48
61 90 61 94 0 3 8 18 18 32 50 72 147 279 178 382 65 213 63 438 -5 646 -74
227 -160 333 -316 391 -49 18 -151 25 -187 14z m191 -432 c71 -47 91 -99 87
-229 -5 -157 -83 -356 -215 -548 -59 -86 -176 -222 -190 -222 -24 0 -36 395
-16 530 31 216 95 396 170 475 31 34 39 37 74 32 21 -2 62 -20 90 -38z m-365
-1834 c19 -66 41 -139 49 -162 l14 -42 -31 -15 c-39 -19 -121 -87 -149 -123
-12 -16 -29 -36 -37 -45 -31 -35 -94 -173 -116 -257 -27 -105 -31 -274 -7
-354 29 -100 100 -197 144 -197 31 0 69 38 69 70 0 14 -7 36 -16 48 -11 16
-16 47 -16 106 0 73 4 92 30 147 35 72 106 149 166 178 22 11 41 19 42 18 1
-1 19 -83 39 -182 20 -99 40 -196 45 -215 5 -19 12 -51 15 -70 3 -19 15 -78
26 -130 11 -52 23 -105 25 -118 21 -117 25 -145 20 -149 -16 -16 -129 -31
-219 -28 -191 5 -334 70 -479 219 -252 256 -250 629 4 1005 71 106 204 269
279 342 15 14 34 38 44 53 10 15 19 25 21 23 2 -1 19 -57 38 -122z m427 -579
c167 -51 270 -224 270 -451 -1 -132 -44 -239 -135 -329 -53 -53 -60 -57 -67
-39 -6 17 -43 186 -55 253 -3 14 -11 57 -19 95 -8 39 -17 86 -20 105 -26 152
-56 303 -68 338 l-15 42 32 0 c17 0 52 -7 77 -14z"/>
</g>
</svg>
